<?xml version="1.0" encoding="UTF-8" standalone="no"?>
<!-- Created with Inkscape (http://www.inkscape.org/) -->

<svg
   width="40mm"
   height="40.000004mm"
   viewBox="0 0 40 40.000003"
   version="1.1"
   id="svg1"
   xmlns="http://www.w3.org/2000/svg"
   xmlns:svg="http://www.w3.org/2000/svg">
  <defs
     id="defs1" />
  <g
     id="layer5"
     transform="translate(-37.431218,-232.3255)">
    <circle
       style="fill:#eeeeee;fill-opacity:1;stroke:#000000;stroke-width:0"
       id="path47"
       cx="57.431217"
       cy="252.32549"
       r="20" />
    <path
       style="fill:#d9d4de;fill-opacity:1;stroke:#000000;stroke-width:0"
       id="path48"
       d="m 47.631826,268.21915 c 0.982241,-0.90058 2.104572,-1.64396 3.32537,-2.18186 0.37528,-0.16536 0.766564,-0.29172 1.149848,-0.43756 0.866111,-0.19757 1.216567,-0.35706 2.09855,-0.2653 0.318098,0.0331 0.630598,0.11771 0.934517,0.2173 0.373837,0.12248 1.642483,0.72864 1.978699,0.84841 0.398169,0.14187 0.812065,0.23493 1.218094,0.3524 1.347952,0.1065 1.694884,0.2231 3.078911,-0.0588 1.277568,-0.26019 2.557426,-0.79211 3.771075,-1.24462 0,0 -0.829411,-0.55865 -0.829411,-0.55865 v 0 c -1.224142,0.45326 -2.467165,0.97039 -3.756607,1.22373 -1.376354,0.27043 -1.71913,0.14912 -3.055837,0.0276 -0.403502,-0.1207 -0.814358,-0.2191 -1.210511,-0.36211 -0.355163,-0.12819 -0.691226,-0.30425 -1.039534,-0.45006 -0.6872,-0.28765 -1.149083,-0.51781 -1.899804,-0.58113 -0.889423,-0.075 -1.24769,0.0872 -2.118127,0.29337 -0.38517,0.1487 -0.778417,0.27795 -1.15551,0.44609 -1.224914,0.54613 -2.348073,1.29696 -3.337112,2.20017 z" />
    <path
       style="fill:#d9d4de;fill-opacity:1;stroke:#000000;stroke-width:0"
       id="path52"
       d="m 43.012762,251.92472 c 0.02132,-0.0598 0.03711,-0.12185 0.06397,-0.17937 0.210841,-0.4515 0.523303,-0.86498 0.894702,-1.19722 0.167753,-0.15006 0.342053,-0.29682 0.5369,-0.40949 0.20809,-0.12033 0.441838,-0.18949 0.66276,-0.28423 0.263366,-0.026 0.525489,-0.0826 0.790102,-0.0781 0.630629,0.0108 1.233101,0.19591 1.843624,0.32305 0.386078,0.0804 0.770274,0.17419 1.161047,0.22722 0.472596,0.0641 0.950281,0.0825 1.425419,0.12377 0,0 -0.803711,-0.59502 -0.803711,-0.59502 v 0 c -0.473054,-0.044 -0.948653,-0.0663 -1.419167,-0.13212 -0.390247,-0.0546 -0.773734,-0.14989 -1.159788,-0.22888 -0.625208,-0.12793 -1.21793,-0.30211 -1.863024,-0.29663 -0.271227,0.002 -0.538115,0.0686 -0.807172,0.10293 -0.225295,0.1015 -0.463616,0.178 -0.675889,0.3045 -0.197702,0.11781 -0.374928,0.26873 -0.545446,0.42329 -0.379865,0.34431 -0.696428,0.76865 -0.914924,1.23202 -0.02985,0.0633 -0.04892,0.13115 -0.07337,0.19673 z" />
    <path
       style="fill:#d9d4de;fill-opacity:1;stroke:#000000;stroke-width:0"
       id="path53"
       d="m 64.438026,253.4842 c 0.129416,-0.0474 0.259218,-0.0937 0.388253,-0.14218 0.625107,-0.23461 1.177242,-0.46043 1.82712,-0.65738 1.125111,-0.34096 2.128506,-0.56951 3.298975,-0.75722 0.671621,-0.1077 1.349344,-0.1731 2.024015,-0.25966 2.661505,-0.20052 1.355241,-0.12963 3.918448,-0.21896 0,0 -0.81111,-0.5849 -0.81111,-0.5849 v 0 c -2.566649,0.0938 -1.258575,0.0204 -3.923858,0.22655 -0.675939,0.0883 -1.355,0.15543 -2.027814,0.26507 -1.181161,0.19248 -2.173028,0.4223 -3.306863,0.7687 -0.660575,0.20181 -1.194761,0.42314 -1.827866,0.65848 -0.127945,0.0476 -0.257,0.0921 -0.385501,0.13812 z" />
    <path
       style="fill:#d9d4de;fill-opacity:1;stroke:#000000;stroke-width:0"
       id="path54"
       d="m 53.935942,242.90894 c 0.909484,-0.40319 1.919321,-0.54612 2.904873,-0.60556 0.485582,-0.0293 0.972828,-0.0429 1.459103,-0.0293 0.51322,0.0144 1.024067,0.0754 1.536099,0.11314 1.941653,0.3695 1.006269,0.15533 2.808764,0.63101 0,0 -0.793731,-0.60827 -0.793731,-0.60827 v 0 c -1.809025,-0.46808 -0.869953,-0.25867 -2.819858,-0.61625 -0.513871,-0.0352 -1.026673,-0.0937 -1.541613,-0.10559 -0.488101,-0.0112 -0.977059,0.004 -1.464231,0.0365 -0.993973,0.0655 -2.01467,0.21631 -2.926458,0.63723 z" />
    <path
       style="fill:#ff3a48;fill-opacity:1;stroke:#000000;stroke-width:0"
       id="path56"
       d="m 47.194702,263.91413 c -0.05163,-0.0494 -0.107968,-0.0944 -0.1549,-0.14835 -0.266965,-0.30676 -0.515602,-0.67382 -0.722921,-1.01486 -0.198139,-0.32593 -0.391724,-0.65521 -0.566166,-0.99442 -0.214651,-0.41739 -0.421079,-0.83989 -0.600255,-1.27369 -0.199705,-0.48351 -0.356785,-0.98354 -0.535181,-1.47531 -0.110736,-0.53389 -0.271174,-1.05985 -0.332208,-1.60168 -0.170701,-1.51544 0.05186,-3.01804 0.781198,-4.3668 0.176311,-0.32605 0.389306,-0.6369 0.642604,-0.90752 0.17697,-0.18906 0.420691,-0.30212 0.631034,-0.45318 0.164931,0.0288 0.488138,-0.0809 0.494787,0.0864 0.0065,0.16438 -0.461349,-0.0924 -0.488574,0.0699 -0.055,0.32774 0.214683,0.62903 0.318304,0.94478 0.571214,1.74055 0.149011,0.57749 0.810249,2.29891 0,0 0.907124,0.42086 0.907124,0.42086 v 0 c -0.575624,-1.48338 -0.330446,-0.7842 -0.812464,-2.29417 -0.103007,-0.32269 -0.103438,-0.69818 -0.307498,-0.96855 -0.877385,-1.16247 -0.848202,-1.05008 -1.766385,-1.09373 -0.215995,0.1603 -0.465357,0.28342 -0.647983,0.48089 -0.256561,0.27742 -0.473602,0.594 -0.653426,0.92633 -0.738484,1.3648 -0.97351,2.88454 -0.808958,4.41999 0.05851,0.54597 0.217347,1.07646 0.326022,1.61469 0.177104,0.49457 0.332783,0.99734 0.53131,1.4837 0.178009,0.43608 0.38354,0.86087 0.597098,1.2807 0.173557,0.34118 0.366604,0.67234 0.563404,1.00066 0.251979,0.42038 0.529932,0.83554 0.864026,1.1963 z" />
    <path
       style="fill:#ff3a48;fill-opacity:1;stroke:#000000;stroke-width:0"
       id="path57"
       d="m 67.133194,263.59637 c 0.02881,-0.0598 0.05636,-0.12031 0.08643,-0.17953 0.245222,-0.48305 0.301662,-0.5546 0.570815,-1.13344 0.457957,-0.98489 0.776923,-1.75024 1.159502,-2.79731 0.23627,-0.64664 0.447024,-1.30232 0.670539,-1.95349 0.668973,-2.03045 1.120563,-4.13442 1.281038,-6.26844 0.05686,-0.75613 0.107733,-2.03462 -0.134604,-2.82375 -0.07567,-0.24641 -0.264379,-0.44259 -0.396568,-0.66389 -0.491797,-0.19173 -0.948094,-0.55103 -1.475391,-0.5752 -0.300759,-0.0138 -0.542909,0.27451 -0.769916,0.47228 -0.302165,0.26326 -0.561403,0.57532 -0.801134,0.89647 -0.525275,0.70367 -0.994289,1.60195 -1.337228,2.40653 -0.163304,0.38314 -0.285605,0.78248 -0.428408,1.17372 0,0 0.874606,0.48483 0.874606,0.48483 v 0 c 0.141156,-0.3883 0.261821,-0.78467 0.423463,-1.1649 0.337632,-0.7942 0.803347,-1.68857 1.323015,-2.38229 0.23428,-0.31275 0.487174,-0.61769 0.784984,-0.87069 0.214305,-0.18206 0.591106,-0.17538 0.732486,-0.41845 0.08202,-0.14101 -0.161023,-0.28375 -0.241533,-0.42562 0.138001,0.20881 0.335571,0.38875 0.414004,0.62644 0.252503,0.76519 0.199914,2.07255 0.146606,2.80011 -0.155895,2.12759 -0.604922,4.22547 -1.270939,6.24967 -0.222822,0.64991 -0.432914,1.30433 -0.668462,1.94974 -0.380934,1.04377 -0.699008,1.80796 -1.155272,2.78979 -0.262024,0.56386 -0.3293,0.65859 -0.571275,1.13425 -0.03165,0.0622 -0.06093,0.12559 -0.09139,0.18839 z" />
    <path
       style="fill:#fc5c67;fill-opacity:1;stroke:#000000;stroke-width:0"
       id="path58"
       d="m 50.820438,248.21419 c -0.08405,-1.18241 -0.04523,-2.37775 0.138092,-3.55008 0.08598,-0.54983 0.183483,-1.09958 0.328062,-1.63698 0.150042,-0.55771 0.369337,-1.09445 0.554003,-1.64168 0.550101,-1.07909 0.718513,-1.63111 1.549458,-2.48613 0.233177,-0.23994 0.499626,-0.45721 0.797642,-0.60929 0.199657,-0.10188 0.516184,0.0388 0.658966,-0.13402 0.09532,-0.11534 -0.373001,-0.29383 -0.422195,-0.15251 -0.08138,0.23376 0.152955,0.47083 0.229433,0.70624 0.05967,1.38547 0.06089,0.68455 -0.0082,2.10278 0,0 0.888707,0.45847 0.888707,0.45847 v 0 c 0.07463,-1.43325 0.06793,-0.7223 0.0231,-2.13282 -0.06748,-0.25617 -0.0163,-0.58005 -0.202454,-0.76853 -0.632579,-0.64043 -1.241229,-1.02704 -2.01318,-0.61303 -0.301829,0.16188 -0.573289,0.38433 -0.810932,0.63097 -0.840674,0.87247 -1.00633,1.41808 -1.566048,2.51507 -0.186695,0.55096 -0.408133,1.09135 -0.560088,1.65289 -0.146135,0.54003 -0.244967,1.09254 -0.33237,1.64512 -0.186608,1.17979 -0.225189,2.38065 -0.148786,3.57114 z" />
    <path
       style="fill:#eeeeee;fill-opacity:1;stroke:#000000;stroke-width:0"
       id="path59"
       d="m 43.228347,260.76124 c 1.461495,0.47354 2.956089,0.83676 4.448471,1.19786 0,0 -0.794806,-0.60686 -0.794806,-0.60686 v 0 c -1.490247,-0.36223 -2.98468,-0.72267 -4.44056,-1.20808 z" />
    <path
       style="fill:#eeeeee;fill-opacity:1;stroke:#000000;stroke-width:0"
       id="path60"
       d="m 43.36846,257.28071 c 0.781174,0.33621 1.560533,0.67658 2.337744,1.02188 0,0 -0.783773,-0.62105 -0.783773,-0.62105 v 0 c -0.776853,-0.34427 -1.559028,-0.67711 -2.332643,-1.02827 z" />
    <path
       style="fill:#eeeeee;fill-opacity:1;stroke:#000000;stroke-width:0"
       id="path61"
       d="m 42.593164,253.59782 c 0.410004,0.4603 0.885899,0.85766 1.352624,1.25821 0.449683,0.38593 0.622306,0.52805 1.069793,0.90242 0,0 0.927258,0.37442 0.927258,0.37442 v 0 c -0.684762,-0.57159 -1.377762,-1.13783 -2.031685,-1.74498 -0.160903,-0.1494 -0.256095,-0.25023 -0.398401,-0.39719 z" />
    <path
       style="fill:#eeeeee;fill-opacity:1;stroke:#000000;stroke-width:0"
       id="path62"
       d="m 46.073578,250.88405 c -0.05988,0.65421 -0.10736,1.30934 -0.150511,1.96484 0,0 0.888013,0.45982 0.888013,0.45982 v 0 c 0.04296,-0.65749 0.08668,-1.31508 0.153506,-1.97067 z" />
    <path
       style="fill:#eeeeee;fill-opacity:1;stroke:#000000;stroke-width:0"
       id="path63"
       d="m 48.453907,244.78422 c 0.645584,0.52461 1.292561,1.04751 1.937782,1.57256 0,0 0.927732,0.37325 0.927732,0.37325 v 0 c -0.644739,-0.52561 -1.292071,-1.04806 -1.937866,-1.57235 z" />
    <path
       style="fill:#eeeeee;fill-opacity:1;stroke:#000000;stroke-width:0"
       id="path64"
       d="m 49.369823,240.83085 c 0.02114,0.0786 0.03932,0.15812 0.0634,0.2359 0.285811,0.92326 0.673825,1.81464 1.075336,2.69204 0.09353,0.1886 0.187055,0.3772 0.280583,0.56581 0,0 0.911034,0.41233 0.911034,0.41233 v 0 c -0.09396,-0.18766 -0.187915,-0.37531 -0.281871,-0.56297 -0.09368,-0.20263 -0.190913,-0.40365 -0.281038,-0.60788 -0.330409,-0.74872 -0.628343,-1.51532 -0.86818,-2.29783 z" />
    <path
       style="fill:#eeeeee;fill-opacity:1;stroke:#000000;stroke-width:0"
       id="path65"
       d="m 51.413491,237.99416 c 0.420709,1.3724 0.758024,2.76853 1.086951,4.1652 0,0 0.90125,0.43329 0.90125,0.43329 v 0 c -0.328176,-1.3985 -0.664805,-2.79653 -1.08417,-4.17102 z" />
    <path
       style="fill:#eeeeee;fill-opacity:1;stroke:#000000;stroke-width:0"
       id="path66"
       d="m 54.816152,238.5095 c -0.419576,0.21167 -0.707453,0.53187 -1.00267,0.88686 0,0 0.857303,0.51481 0.857303,0.51481 v 0 c 0.284972,-0.34022 0.570185,-0.65469 0.978717,-0.84892 z" />
    <path
       style="fill:#eeeeee;fill-opacity:1;stroke:#000000;stroke-width:0"
       id="path70"
       d="m 66.071138,247.97524 c 0.256971,0.51762 0.520115,1.03333 0.81929,1.5282 0.07024,0.11619 0.145727,0.22915 0.218591,0.34372 0.244999,0.3453 0.124905,0.18808 0.356209,0.47472 0,0 0.92021,0.39143 0.92021,0.39143 v 0 c -0.235395,-0.27814 -0.113517,-0.12478 -0.36095,-0.46377 -0.07349,-0.11316 -0.149892,-0.22448 -0.220456,-0.33949 -0.301747,-0.4918 -0.565108,-1.00635 -0.821804,-1.5226 z" />
    <path
       style="fill:#eeeeee;fill-opacity:1;stroke:#000000;stroke-width:0"
       id="path71"
       d="m 71.365863,248.59406 c -0.538406,0.28574 -1.087863,0.54908 -1.638218,0.81081 -0.115993,0.055 -0.231986,0.11002 -0.347982,0.16502 0,0 0.834249,0.55139 0.834249,0.55139 v 0 c 0.116017,-0.055 0.232035,-0.11008 0.348052,-0.16512 0.550743,-0.26224 1.099629,-0.52792 1.639292,-0.81244 z" />
    <path
       style="fill:#eeeeee;fill-opacity:1;stroke:#000000;stroke-width:0"
       id="path73"
       d="m 68.415349,255.00036 c 0.32525,0.5965 0.606642,1.21454 0.877334,1.8372 0.13534,0.31082 0.260462,0.62582 0.382511,0.94203 0,0 0.907026,0.42107 0.907026,0.42107 v 0 c -0.120965,-0.31767 -0.24539,-0.63399 -0.380717,-0.9459 -0.269883,-0.62503 -0.549198,-1.24597 -0.87382,-1.84496 z" />
    <path
       style="fill:#eeeeee;fill-opacity:1;stroke:#000000;stroke-width:0"
       id="path74"
       d="m 67.267486,257.69119 c 0.09677,1.02381 0.281585,2.03662 0.457756,3.04898 0.03733,0.20421 0.07466,0.40842 0.11199,0.61263 0,0 0.899086,0.43777 0.899086,0.43777 v 0 c -0.03746,-0.20395 -0.07491,-0.4079 -0.112369,-0.61185 -0.176149,-1.0095 -0.36027,-2.01911 -0.462455,-3.03949 z" />
    <path
       style="fill:#ff8468;fill-opacity:1;stroke:#000000;stroke-width:0"
       id="path83"
       d="m 54.144732,258.0832 c 0.0021,-1.8472 -0.02196,-3.69419 -0.02024,-5.54141 0.0024,-0.7655 0.0048,-1.53103 0.01524,-2.29647 -0.966455,-0.47741 -0.874353,-0.67532 -0.929675,-0.14505 -0.0026,0.0245 -0.0303,0.20549 0.01135,0.2342 0.305001,0.21021 0.637418,0.37757 0.95613,0.56636 1.539242,-0.0166 3.050447,-0.3774 4.545377,-0.71053 0.598594,-0.0767 1.209736,-0.37341 1.82534,-0.3259 0.0844,0.007 0.315663,0.11554 0.243959,0.0705 -0.824357,-0.5173 -0.824206,-0.60418 -0.668666,-0.23071 0.0024,0.08 0.01074,0.16005 0.0069,0.24 -0.02376,0.49788 -0.126143,0.99642 -0.186584,1.49017 -0.07842,0.64062 -0.0902,0.81882 -0.150667,1.46765 -0.09566,1.28626 -0.162287,2.57457 -0.238427,3.86214 -0.05101,0.49454 -0.02103,0.99106 -0.02647,1.48651 -0.02701,0.0297 -0.04512,0.0712 -0.08102,0.0891 -0.272394,0.1363 -0.960406,0.16675 -1.235618,0.18206 -0.647369,0.036 -0.826161,0.0241 -1.487371,0.0197 -0.2507,-0.006 -0.501486,-0.01 -0.752104,-0.019 -0.219385,-0.008 -0.438613,-0.0198 -0.657805,-0.0319 -0.50378,-0.0279 -1.005736,-0.0559 -1.497697,-0.17233 -0.511257,-0.27759 0.405201,0.23818 0.615484,0.34268 0.02905,0.0144 -0.04711,-0.0458 -0.06346,-0.0738 -0.07286,-0.12488 -0.05747,-0.29917 -0.0616,-0.43539 0.01199,-0.37239 0.03457,-0.74434 0.0516,-1.11653 0,0 -0.888939,-0.45803 -0.888939,-0.45803 v 0 c -0.01683,0.37424 -0.03776,0.74825 -0.05464,1.12248 0.0021,0.15511 -0.01193,0.33481 0.03789,0.48557 0.148831,0.45022 0.745659,0.56665 1.159746,0.7382 0.958066,0.19557 1.948391,0.16391 2.920272,0.20625 0.642694,0.002 0.862264,0.013 1.492665,-0.027 0.325425,-0.0206 0.985597,-0.0459 1.279271,-0.24871 0.05108,-0.0353 0.07566,-0.0984 0.113496,-0.14765 0.01257,-0.49393 -0.03097,-0.98974 0.02461,-1.4829 0.07597,-1.28656 0.143309,-2.57379 0.236887,-3.85917 0.05855,-0.63491 0.0724,-0.83689 0.148783,-1.46406 0.06088,-0.4998 0.156784,-0.9996 0.192863,-1.50229 0.0063,-0.088 0.0034,-0.17641 0.0052,-0.26462 -0.105736,-0.55948 -1.62e-4,-0.26608 -1.029957,-0.80451 -0.160266,-0.0838 -0.555099,-0.0354 -0.683152,-0.0158 -0.221199,0.034 -1.267362,0.27462 -1.412472,0.30734 -0.962885,0.21317 -1.925156,0.42871 -2.902313,0.56809 -0.376441,0.0537 -0.92715,0.11704 -1.329076,0.11819 -0.09295,2.7e-4 -0.185171,-0.0165 -0.277757,-0.0247 0.24516,0.15849 0.483473,0.32812 0.735486,0.47548 0.02336,0.0136 -0.03709,-0.043 -0.04156,-0.0697 -0.0067,-0.0404 0.0052,-0.0818 0.0094,-0.12252 0.0047,-0.0455 0.01246,-0.0906 0.01728,-0.13611 0.0037,-0.035 0.0372,-0.0851 0.0084,-0.10535 -0.278402,-0.19512 -0.589423,-0.33896 -0.884134,-0.50844 0.04828,0.0343 0.01146,0.003 0.0096,0.14139 -0.0013,0.0925 -0.0021,0.18494 -0.003,0.27742 -0.0056,0.61788 -0.0081,1.23578 -0.01,1.85368 -0.0021,1.84726 0.02191,3.69427 0.02019,5.54151 z" />
    <path
       style="fill:#252c3e;fill-opacity:1;stroke:#000000;stroke-width:0"
       id="path84"
       d="m 52.956425,252.57603 c 0.530516,-0.80034 1.134525,-1.55044 1.699122,-2.32669 0.776079,-1.067 0.974104,-1.37029 1.723036,-2.4591 0.27382,-0.4037 0.991724,-1.48814 1.34316,-1.92037 0.137311,-0.16888 0.273693,-0.34682 0.452858,-0.47041 0.09264,-0.0639 0.441709,-0.0861 0.33034,-0.0699 -0.873479,0.12749 -0.504753,0.0303 -0.0051,1.1504 0.544685,1.36854 1.089205,2.73678 1.694577,4.07994 0.163462,0.36267 0.335875,0.72125 0.503812,1.08187 0,0 0.90997,0.41467 0.90997,0.41467 v 0 c -0.168253,-0.35993 -0.340989,-0.7178 -0.504758,-1.07979 -0.607288,-1.34232 -1.15401,-2.70972 -1.69458,-4.07994 -0.518001,-1.19907 -0.396637,-1.36087 -1.728102,-2.13351 -0.108987,-0.0632 -0.258109,0.0413 -0.359934,0.11553 -0.17944,0.1308 -0.319982,0.30953 -0.459819,0.48201 -0.353854,0.43648 -1.066668,1.51305 -1.344496,1.92264 -0.750115,1.09034 -0.943907,1.38744 -1.721136,2.45588 -0.51902,0.71349 -1.069703,1.40573 -1.573131,2.13065 -0.04852,0.0699 -0.09139,0.14349 -0.137088,0.21523 z" />
    <path
       style="fill:#252c3e;fill-opacity:1;stroke:#000000;stroke-width:0"
       id="path85"
       d="m 53.45926,252.72999 c 1.682798,-0.0599 3.349551,-0.31459 5.011044,-0.57199 0.662962,-0.0906 1.313593,-0.27227 1.983397,-0.30842 0.291507,-0.0136 0.572365,0.0861 0.848031,0.16802 0,0 -0.792075,-0.61042 -0.792075,-0.61042 v 0 c -0.283242,-0.0805 -0.570608,-0.16712 -0.868775,-0.14012 -0.670301,0.0509 -1.323597,0.22392 -1.98851,0.31562 -1.660613,0.256 -3.326241,0.50285 -5.007589,0.56711 z" />
    <path
       style="fill:#ba5950;fill-opacity:1;stroke:#000000;stroke-width:0"
       id="path86"
       d="m 56.244346,258.48611 c -0.0073,-0.89582 -0.04003,-1.79153 -0.0771,-2.68657 -0.02177,-0.48906 -0.04464,-0.97807 -0.06938,-1.46699 -0.0099,-0.19535 -0.02455,-0.39069 -0.02669,-0.5863 0.004,-0.0125 -0.0011,-0.0384 0.01212,-0.0376 0.01524,0.001 0.01077,0.0301 0.02252,0.0399 0.02432,0.0201 0.05314,0.0348 0.08229,0.047 0.188685,0.0787 0.398759,0.11197 0.597479,0.15202 0.291807,0.0559 0.587666,0.0841 0.882629,0.11677 0.08058,0.009 0.161716,0.014 0.241657,0.0276 0.06332,0.0107 0.243454,0.0762 0.187339,0.045 -0.236046,-0.1314 -0.487932,-0.23208 -0.731899,-0.34812 0.02582,0.0817 0.06238,0.16076 0.0775,0.2451 0.03844,0.21451 0.0357,0.59129 0.03567,0.7972 -8e-5,0.51758 -0.01368,1.03512 -0.0159,1.55271 0.01021,0.67999 -0.0062,1.36107 0.02019,2.0408 0.004,0.0308 0.0079,0.0615 0.01188,0.0923 0,0 0.898453,0.43907 0.898453,0.43907 v 0 c -0.0058,-0.0271 -0.01156,-0.0542 -0.01733,-0.0813 -0.01074,-0.21707 -0.01109,-0.43425 -0.01336,-0.65157 -0.0048,-0.46164 -0.0084,-0.92329 -0.009,-1.38495 0.0016,-0.51801 0.01423,-1.03573 0.01641,-1.5537 0.0011,-0.23281 0.0046,-0.58122 -0.02487,-0.81908 -0.01199,-0.0967 -0.03929,-0.19085 -0.05894,-0.28627 -0.328382,-0.21566 -0.645374,-0.44976 -0.985152,-0.64699 -0.0459,-0.0266 -0.40885,-0.0614 -0.435107,-0.0644 -0.293294,-0.0333 -0.587169,-0.0654 -0.876692,-0.12467 -0.243861,-0.0545 -0.220673,-0.0443 -0.444174,-0.11191 -0.109199,-0.033 -0.239478,-0.11522 -0.335254,-0.009 -0.01693,0.0188 -0.01961,0.0467 -0.0294,0.07 -0.0024,0.19714 0.01439,0.39394 0.02442,0.5908 0.02487,0.48868 0.04775,0.97747 0.06973,1.46629 0.03777,0.89379 0.06995,1.78828 0.07899,2.68284 z" />
  </g>
</svg>
